<?xml version="1.0" encoding="utf-8"?>
<!-- Generator: Adobe Illustrator 24.0.2, SVG Export Plug-In . SVG Version: 6.00 Build 0)  -->
<svg version="1.1" id="Layer_1" xmlns="http://www.w3.org/2000/svg" xmlns:xlink="http://www.w3.org/1999/xlink" x="0px" y="0px"
	 viewBox="0 0 44 44" style="enable-background:new 0 0 44 44;" xml:space="preserve">
<style type="text/css">
	.st0{fill:#D02B2F;}
	.st1{fill:#FFFFFF;}
</style>
<g>
	<circle class="st0" cx="35" cy="22" r="2"/>
	<circle class="st0" cx="15" cy="16" r="2"/>
	<circle class="st0" cx="21" cy="16" r="2"/>
	<circle class="st0" cx="9" cy="16" r="2"/>
	<path class="st1" d="M41,11H30V8c0-1.65-1.35-3-3-3H3C1.35,5,0,6.35,0,8v22.59C0,31.92,1.08,33,2.41,33c0.65,0,1.25-0.25,1.71-0.7
		l4.42-4.42C9.09,27.32,9.87,27,10.66,27H14v3c0,1.66,1.35,3,3,3h16.34c0.79,0,1.57,0.32,2.12,0.88l4.42,4.42
		c0.46,0.45,1.06,0.7,1.71,0.7c1.33,0,2.41-1.08,2.41-2.41V14C44,12.35,42.65,11,41,11z M10.66,25c-1.34,0-2.59,0.53-3.54,1.47
		l-4.41,4.41C2.47,31.13,2,30.93,2,30.59V8c0-0.55,0.45-1,1-1h24c0.55,0,1,0.45,1,1v16c0,0.56-0.45,1-1,1H10.66z M42,36.59
		c0,0.34-0.47,0.53-0.71,0.29l-4.41-4.41c-0.95-0.94-2.2-1.47-3.54-1.47H17c-0.55,0-1-0.44-1-1v-3h11c1.65,0,3-1.34,3-3V13h11
		c0.55,0,1,0.45,1,1V36.59z"/>
	<path class="st0" d="M31,22c0,0.74-0.41,1.38-1,1.73v-3.45C30.59,20.63,31,21.27,31,22z"/>
</g>
</svg>
