<?xml version="1.0" encoding="utf-8"?>
<!-- Generator: Adobe Illustrator 24.0.2, SVG Export Plug-In . SVG Version: 6.00 Build 0)  -->
<svg version="1.1" id="Layer_1" xmlns="http://www.w3.org/2000/svg" xmlns:xlink="http://www.w3.org/1999/xlink" x="0px" y="0px"
	 viewBox="0 0 44 44" style="enable-background:new 0 0 44 44;" xml:space="preserve">
<style type="text/css">
	.st0{fill:#FFFFFF;}
	.st1{fill:#D02B2F;}
</style>
<path class="st0" d="M43.74,17.09c-0.54-2.34-2.64-3.91-4.99-3.88l-2.03-8.87c-0.38-1.66-1.94-2.63-3.59-2.25
	c-1.46,0.33-2.39,1.68-2.34,3.2c-2.96,4.99-5.71,7.77-9.33,9.42c-0.47,0.21-0.74,0.79-0.51,1.35c0.21,0.47,0.67,0.67,1.15,0.56
	c0.1-0.02,0.1-0.02,0.19-0.04c3.5-1.73,6.32-4.22,9.12-8.55l5.16,22.52c-4.39-2.59-8.03-3.7-11.91-3.63
	c-1.31,0.1-2.7,0.31-4.16,0.65c-0.58,0.13-0.89,0.61-0.75,1.2l0.22,0.97l-12.67,2.9l-0.67-2.92l-1.79-7.8l-0.67-2.92l12.67-2.9
	l2.01,8.77c0.13,0.58,0.61,0.89,1.2,0.75c0.58-0.13,0.89-0.61,0.75-1.2l-2.01-8.77c-0.25-1.07-1.32-1.75-2.4-1.5l-12.67,2.9
	c-1.07,0.25-1.75,1.32-1.5,2.4l0.45,1.95l-0.97,0.22c-1.07,0.25-1.75,1.32-1.5,2.4l1.34,5.85c0.25,1.07,1.32,1.75,2.4,1.5l0.97-0.22
	l0.45,1.95c0.25,1.07,1.32,1.75,2.4,1.5l1.95-0.45l1.29,5.65c0.27,1.17,1.47,1.92,2.64,1.65c0.88-0.2,1.52-0.96,1.64-1.81l0.63-4.86
	l1.07-0.25c0.58-0.13,0.89-0.61,0.75-1.2l-0.22-0.97l2.92-0.67c1.07-0.25,1.75-1.32,1.5-2.4c0.97-0.22,1.9-0.23,2.8-0.33
	c3.98-0.09,7.76,1.2,12.5,4.42c0.51,1.32,2.04,2.2,3.5,1.86c1.66-0.38,2.63-1.94,2.25-3.59l-2.03-8.87
	C43.07,21.76,44.28,19.43,43.74,17.09z M3.47,29.39l-1.34-5.85l0.97-0.22l1.34,5.85L3.47,29.39z M13.34,39.34
	c-0.08,0.12-0.37,0.19-0.41-0.01l-1.29-5.65l2.53-0.58L13.34,39.34z M41.02,32.07c0.13,0.58-0.17,1.06-0.75,1.2s-1.06-0.17-1.2-0.75
	L32.82,5.23c-0.13-0.58,0.17-1.06,0.75-1.2c0.58-0.13,1.06,0.17,1.2,0.75L37,14.53l1.79,7.8L41.02,32.07z M40.47,20.71l-1.27-5.56
	c1.26,0.12,2.28,1.02,2.57,2.28C42.06,18.7,41.55,20.05,40.47,20.71z"/>
<path class="st1" d="M14.65,25.74l-4.87,1.12c-0.58,0.13-0.89,0.61-0.75,1.2s0.61,0.89,1.2,0.75l4.87-1.12
	c0.58-0.13,0.89-0.61,0.75-1.2S15.23,25.6,14.65,25.74z"/>
<path class="st1" d="M13.98,22.81L9.1,23.93c-0.58,0.13-0.89,0.61-0.75,1.2s0.61,0.89,1.2,0.75l4.87-1.12
	c0.58-0.13,0.89-0.61,0.75-1.2C15.04,22.98,14.56,22.68,13.98,22.81z"/>
<path class="st1" d="M13.31,19.89L8.44,21c-0.58,0.13-0.89,0.61-0.75,1.2c0.13,0.58,0.61,0.89,1.2,0.75l4.87-1.12
	c0.58-0.13,0.89-0.61,0.75-1.2C14.37,20.05,13.89,19.75,13.31,19.89z"/>
<g id="audience">
</g>
</svg>
