<svg xmlns="http://www.w3.org/2000/svg" width="340" height="192.363"><g fill="#ec3e75"><path data-name="Caminho 45" d="M30.084 168.178a1.929 1.929 0 00-2.168 2.2v19.818a2.108 2.108 0 00.565 1.588 2.612 2.612 0 003.206 0 2.112 2.112 0 00.565-1.588v-19.82a1.93 1.93 0 00-2.168-2.2"/><path data-name="Caminho 46" d="M45.502 174.922a5.832 5.832 0 00-4.872 2.2v-.059q-.092-2.108-1.962-2.109-1.931 0-1.932 2.139v13.1a2.186 2.186 0 00.536 1.591 2.058 2.058 0 001.544.548 1.865 1.865 0 002.081-2.139v-8.228a3.441 3.441 0 01.92-2.5 3.52 3.52 0 014.813 0 3.442 3.442 0 01.921 2.5v8.227a2.192 2.192 0 00.535 1.591 2.062 2.062 0 001.545.548 1.865 1.865 0 002.08-2.139v-8.883a6.363 6.363 0 00-1.708-4.635 6 6 0 00-4.5-1.753"/><path data-name="Caminho 47" d="M63.356 178.489q1.692 0 1.693-1.634a1.471 1.471 0 00-1.693-1.634h-2.437v-2.61q0-2.139-2.049-2.139-2.019 0-2.019 2.139v2.614h-1.128q-1.727 0-1.725 1.634t1.725 1.634h1.039v9.031a4.188 4.188 0 001.411 3.3 5.464 5.464 0 003.757 1.248h1.13q1.692 0 1.694-1.634a1.472 1.472 0 00-1.694-1.634h-.683a1.4 1.4 0 01-1.055-.416 1.511 1.511 0 01-.4-1.1v-8.794z"/><path data-name="Caminho 48" d="M74.678 174.922a7.761 7.761 0 00-5.556 1.991 6.855 6.855 0 00-2.109 5.229v3a6.8 6.8 0 002.139 5.229 7.946 7.946 0 005.644 1.992 10.479 10.479 0 004.055-.759 5.1 5.1 0 002.6-2.094 1.22 1.22 0 00.045-1.291 2.083 2.083 0 00-1.383-1.085 1.8 1.8 0 00-1.9.445 4.421 4.421 0 01-3.417 1.6 3.4 3.4 0 01-2.63-1.085 4.07 4.07 0 01-.993-2.867v-.3h9.476a1.523 1.523 0 001.723-1.723v-1.07a6.838 6.838 0 00-2.124-5.229 7.818 7.818 0 00-5.57-1.991m3.535 7.16h-7.04v-.03a4.154 4.154 0 01.963-2.867 3.246 3.246 0 012.542-1.085 3.287 3.287 0 012.554 1.085 4.117 4.117 0 01.981 2.867z"/><path data-name="Caminho 49" d="M93.516 174.952a4.433 4.433 0 00-3.833 2.081q-.088-2.08-1.96-2.081-1.931 0-1.931 2.139v13.1a2.2 2.2 0 00.534 1.589 2.064 2.064 0 001.546.548 1.864 1.864 0 002.08-2.138v-7.605a3.646 3.646 0 01.905-2.6 4.1 4.1 0 012.452-1.2 4.351 4.351 0 001.751-.595 1.431 1.431 0 00.536-1.248q0-1.99-2.081-1.991"/><path data-name="Caminho 50" d="M107.029 174.922a5.836 5.836 0 00-4.873 2.2v-.059q-.087-2.108-1.961-2.109-1.931 0-1.931 2.139v13.1a2.2 2.2 0 00.533 1.591 2.066 2.066 0 001.547.548 1.863 1.863 0 002.078-2.139v-8.228a3.442 3.442 0 01.921-2.5 3.521 3.521 0 014.814 0 3.433 3.433 0 01.921 2.5v8.227a2.2 2.2 0 00.534 1.591 2.064 2.064 0 001.546.548 1.865 1.865 0 002.08-2.139v-8.883a6.353 6.353 0 00-1.709-4.635 6 6 0 00-4.5-1.753"/><path data-name="Caminho 51" d="M124.26 174.922a7.761 7.761 0 00-5.554 1.991 6.855 6.855 0 00-2.111 5.229v3a6.809 6.809 0 002.139 5.229 7.95 7.95 0 005.645 1.992 10.471 10.471 0 004.055-.759 5.121 5.121 0 002.6-2.094 1.227 1.227 0 00.043-1.291 2.083 2.083 0 00-1.381-1.085 1.8 1.8 0 00-1.9.445 4.418 4.418 0 01-3.415 1.6 3.394 3.394 0 01-2.629-1.085 4.063 4.063 0 01-.995-2.867v-.3h9.475a1.524 1.524 0 001.725-1.723v-1.07a6.838 6.838 0 00-2.125-5.229 7.821 7.821 0 00-5.571-1.991m3.535 7.16h-7.039v-.03a4.154 4.154 0 01.963-2.867 3.241 3.241 0 012.541-1.085 3.286 3.286 0 012.556 1.085 4.117 4.117 0 01.979 2.867z"/><path data-name="Caminho 52" d="M142.948 178.489a1.635 1.635 0 100-3.268h-2.437v-2.61q0-2.139-2.051-2.139-2.017 0-2.018 2.139v2.614h-1.129q-1.725 0-1.724 1.634t1.724 1.634h1.04v9.031a4.184 4.184 0 001.411 3.3 5.46 5.46 0 003.755 1.248h1.13q1.694 0 1.694-1.634a1.472 1.472 0 00-1.694-1.634h-.684a1.4 1.4 0 01-1.055-.416 1.511 1.511 0 01-.4-1.1v-8.794z"/><path data-name="Caminho 53" d="M167.427 168.178a2.053 2.053 0 00-1.545.551 2.179 2.179 0 00-.536 1.588v6.687a6.169 6.169 0 00-4.9-2.079 6.363 6.363 0 00-4.829 1.916 7.042 7.042 0 00-1.826 5.066v3.477a7.035 7.035 0 001.826 5.065 6.36 6.36 0 004.829 1.917 6.135 6.135 0 005.2-2.437v.3q.09 2.11 1.991 2.109 1.872 0 1.872-2.139v-19.882a2.18 2.18 0 00-.536-1.588 2.053 2.053 0 00-1.544-.551m-2.085 16.756a3.772 3.772 0 01-1.023 2.764 3.611 3.611 0 01-2.689 1.04 3.556 3.556 0 01-2.674-1.04 3.791 3.791 0 01-1.011-2.764v-2.584a3.846 3.846 0 011.011-2.779 3.531 3.531 0 012.674-1.055 3.586 3.586 0 012.689 1.055 3.826 3.826 0 011.023 2.779z"/><path data-name="Caminho 54" d="M180.647 174.922a7.761 7.761 0 00-5.554 1.991 6.85 6.85 0 00-2.111 5.229v3a6.81 6.81 0 002.139 5.229 7.948 7.948 0 005.644 1.992 10.473 10.473 0 004.056-.759 5.111 5.111 0 002.6-2.094 1.224 1.224 0 00.045-1.291 2.087 2.087 0 00-1.381-1.085 1.8 1.8 0 00-1.9.445 4.42 4.42 0 01-3.417 1.6 3.4 3.4 0 01-2.629-1.085 4.07 4.07 0 01-.995-2.867v-.3h9.476a1.524 1.524 0 001.725-1.723v-1.07a6.837 6.837 0 00-2.125-5.229 7.821 7.821 0 00-5.571-1.991m3.535 7.16h-7.04v-.03a4.151 4.151 0 01.965-2.867 3.24 3.24 0 012.54-1.085 3.287 3.287 0 012.556 1.085 4.117 4.117 0 01.979 2.867z"/><path data-name="Caminho 55" d="M210.89 175.072a1.9 1.9 0 00-2.644 1.515l-3.386 11.646-3.387-11.646a1.884 1.884 0 00-2.615-1.515 1.84 1.84 0 00-1.4 2.644l3.714 11.408q.923 3.09 3.535 3.089h.3q2.555 0 3.536-3.089l3.713-11.408a1.853 1.853 0 00-1.367-2.644"/><path data-name="Caminho 56" d="M222.265 174.922a7.762 7.762 0 00-5.554 1.991 6.857 6.857 0 00-2.111 5.229v3a6.809 6.809 0 002.139 5.229 7.952 7.952 0 005.646 1.992 10.476 10.476 0 004.055-.759 5.121 5.121 0 002.6-2.094 1.229 1.229 0 00.045-1.291 2.089 2.089 0 00-1.382-1.085 1.8 1.8 0 00-1.9.445 4.418 4.418 0 01-3.415 1.6 3.393 3.393 0 01-2.629-1.085 4.061 4.061 0 01-.995-2.867v-.3h9.475a1.524 1.524 0 001.725-1.723v-1.07a6.838 6.838 0 00-2.125-5.229 7.819 7.819 0 00-5.571-1.991m3.535 7.16h-7.038v-.03a4.154 4.154 0 01.964-2.867 3.241 3.241 0 012.541-1.085 3.286 3.286 0 012.555 1.085 4.116 4.116 0 01.979 2.867z"/><path data-name="Caminho 57" d="M241.105 174.952a4.429 4.429 0 00-3.833 2.081q-.088-2.08-1.96-2.081-1.932 0-1.932 2.139v13.1a2.191 2.191 0 00.535 1.589 2.06 2.06 0 001.544.548 1.865 1.865 0 002.082-2.138v-7.605a3.645 3.645 0 01.9-2.6 4.1 4.1 0 012.452-1.2 4.359 4.359 0 001.752-.595 1.433 1.433 0 00.535-1.248q0-1.99-2.081-1.991"/><path data-name="Caminho 58" d="M258.483 168.178a2.049 2.049 0 00-1.542.551 2.181 2.181 0 00-.536 1.588v6.687a6.174 6.174 0 00-4.9-2.079 6.365 6.365 0 00-4.828 1.916 7.043 7.043 0 00-1.828 5.066v3.477a7.035 7.035 0 001.828 5.065 6.362 6.362 0 004.828 1.917 6.137 6.137 0 005.2-2.437v.3q.09 2.11 1.991 2.109 1.874 0 1.871-2.139v-19.882a2.184 2.184 0 00-.533-1.588 2.062 2.062 0 00-1.547-.551m-2.078 16.756a3.764 3.764 0 01-1.024 2.764 3.614 3.614 0 01-2.691 1.04 3.559 3.559 0 01-2.673-1.04 3.792 3.792 0 01-1.01-2.764v-2.584a3.846 3.846 0 011.01-2.779 3.534 3.534 0 012.673-1.055 3.589 3.589 0 012.691 1.055 3.818 3.818 0 011.024 2.779z"/><path data-name="Caminho 59" d="M276.682 176.527a8.241 8.241 0 00-5.3-1.6 10.414 10.414 0 00-3.89.7 4.742 4.742 0 00-2.5 2.006 1.2 1.2 0 00-.045 1.278 2.109 2.109 0 001.381 1.069 1.872 1.872 0 001.9-.416 4.143 4.143 0 013.148-1.456 3.2 3.2 0 012.273.816 2.809 2.809 0 01.876 2.155v1.01h-5.078a6.16 6.16 0 00-4.012 1.233 3.988 3.988 0 00-1.516 3.252v.981a4.442 4.442 0 001.486 3.49 5.674 5.674 0 003.922 1.323 6.712 6.712 0 005.466-2.317v.178q.149 2.11 2.021 2.109t1.873-2.139v-9.418a5.174 5.174 0 00-2.006-4.248m-2.156 9.239a2.961 2.961 0 01-1.085 2.392 4.272 4.272 0 01-2.837.9 2.924 2.924 0 01-1.826-.535 1.734 1.734 0 01-.7-1.455v-.328a1.576 1.576 0 01.641-1.321 2.669 2.669 0 011.678-.491h4.128z"/><path data-name="Caminho 60" d="M295.71 168.178a2.047 2.047 0 00-1.542.551 2.178 2.178 0 00-.536 1.588v6.687a6.174 6.174 0 00-4.9-2.079 6.37 6.37 0 00-4.83 1.916 7.042 7.042 0 00-1.826 5.066v3.477a7.035 7.035 0 001.826 5.065 6.366 6.366 0 004.83 1.917 6.134 6.134 0 005.2-2.437v.3q.09 2.11 1.991 2.109 1.874 0 1.871-2.139v-19.882a2.184 2.184 0 00-.534-1.588 2.056 2.056 0 00-1.546-.551m-2.079 16.756a3.761 3.761 0 01-1.025 2.764 3.611 3.611 0 01-2.69 1.04 3.555 3.555 0 01-2.672-1.04 3.788 3.788 0 01-1.01-2.764v-2.584a3.842 3.842 0 011.01-2.779 3.531 3.531 0 012.672-1.055 3.586 3.586 0 012.69 1.055 3.815 3.815 0 011.025 2.779z"/><path data-name="Caminho 61" d="M308.93 174.922a7.766 7.766 0 00-5.556 1.991 6.856 6.856 0 00-2.109 5.229v3a6.8 6.8 0 002.139 5.229 7.952 7.952 0 005.644 1.992 10.476 10.476 0 004.057-.759 5.1 5.1 0 002.6-2.094 1.215 1.215 0 00.045-1.291 2.081 2.081 0 00-1.38-1.085 1.8 1.8 0 00-1.9.445 4.419 4.419 0 01-3.417 1.6 3.4 3.4 0 01-2.63-1.085 4.075 4.075 0 01-.995-2.867v-.3h9.48a1.521 1.521 0 001.72-1.723v-1.07a6.837 6.837 0 00-2.122-5.229 7.82 7.82 0 00-5.571-1.991m3.535 7.16h-7.042v-.03a4.154 4.154 0 01.966-2.867 3.242 3.242 0 012.541-1.085 3.285 3.285 0 012.555 1.085 4.114 4.114 0 01.98 2.867z"/><path data-name="Caminho 62" d="M150.968 32.659c-21.9 0-37.8 15.993-37.8 38.027v6.371c0 11.011 3.884 20.431 11.23 27.242 6.839 6.34 16.275 9.831 26.568 9.831 11.949 0 23.131-4.691 29.913-12.549a5.824 5.824 0 00-8.818-7.61c-4.6 5.33-12.486 8.511-21.1 8.511-12.234 0-24.571-6.948-26.009-22.369h54.623a9.2 9.2 0 009.193-9.192v-1.49c0-21.652-15.544-36.772-37.8-36.772m-26.076 35.808c.976-14.335 11.423-24.161 26.076-24.161 12.772 0 25.658 7.481 26.136 24.161z"/><path data-name="Caminho 63" d="M299.264 32.658A40.736 40.736 0 10340 73.394a40.781 40.781 0 00-40.736-40.736m8.605 68.525a29.15 29.15 0 1120.347-27.789 29.01 29.01 0 01-20.347 27.789"/><path data-name="Caminho 64" d="M275.55 6.772a5.824 5.824 0 00-5.824-5.824c-29.278 0-51.359 22.079-51.359 51.359v22.309a5.824 5.824 0 1011.648 0V52.311c0-23.011 16.7-39.713 39.711-39.713a5.822 5.822 0 005.824-5.823"/><path data-name="Caminho 65" d="M219.299 13.62a6.809 6.809 0 10-6.766-6.809 6.787 6.787 0 006.766 6.809"/><path data-name="Caminho 66" d="M113.739 12.716a5.913 5.913 0 00-1.641-11.712C97.152 3.098 90.74 12.914 83.91 25.53l-21.6 39.9c-1.6 2.7-2.222 2.906-2.895 2.939-.672-.033-1.294-.242-2.893-2.939l-21.6-39.9C28.092 12.915 21.681 3.098 6.735 1.004a5.913 5.913 0 00-1.641 11.712c8.675 1.215 12.631 5.889 19.427 18.445l21.655 40c.035.063.069.126.106.188 2.462 4.175 5.882 8.454 12.523 8.82l.112.007c.114.007.223.019.341.023h.318c.118 0 .227-.016.343-.023l.11-.007c6.64-.366 10.06-4.644 12.523-8.82.037-.061.072-.124.107-.188l21.653-40c6.8-12.556 10.753-17.23 19.427-18.445"/></g></svg>