<?xml version="1.0" encoding="utf-8"?>
<!-- Generator: Adobe Illustrator 24.1.2, SVG Export Plug-In . SVG Version: 6.00 Build 0)  -->
<svg version="1.1" id="Layer_1" xmlns="http://www.w3.org/2000/svg" xmlns:xlink="http://www.w3.org/1999/xlink" x="0px" y="0px"
	 viewBox="0 0 373 178" style="enable-background:new 0 0 373 178;" xml:space="preserve">
<style type="text/css">
	.st0{fill:#323E48;}
	.st1{fill:#D02C2F;}
	.st2{fill:#FFFFFF;}
</style>
<g>
	<g>
		<path class="st0" d="M67.9,157.1c-2.3,0-4.4-1-5.9-2.8l-34.2-42v37.2c0,4.2-3.4,7.6-7.6,7.6c-4.2,0-7.6-3.4-7.6-7.6V90.9
			c0-3.2,2-6.1,5.1-7.2c3-1.1,6.4-0.1,8.5,2.4l34.2,42V90.9c0-4.2,3.4-7.6,7.6-7.6c4.2,0,7.6,3.4,7.6,7.6v58.6c0,3.2-2,6.1-5.1,7.2
			C69.6,157,68.7,157.1,67.9,157.1z"/>
	</g>
	<g>
		<path class="st0" d="M109.2,158.9c-14.2,0-25.7-11.5-25.7-25.7v-26c0-4.2,3.4-7.6,7.6-7.6c4.2,0,7.6,3.4,7.6,7.6v26
			c0,5.8,4.7,10.4,10.4,10.4c5.8,0,10.4-4.7,10.4-10.4v-26c0-4.2,3.4-7.6,7.6-7.6c4.2,0,7.6,3.4,7.6,7.6v26
			C134.9,147.4,123.3,158.9,109.2,158.9z"/>
	</g>
	<g>
		<path class="st0" d="M162,157.1c-3.1,0-5.9-1.9-7.1-4.8l-16.7-42.2c-1.5-3.9,0.4-8.3,4.3-9.9c3.9-1.5,8.3,0.4,9.9,4.3l9.6,24.3
			l9.6-24.3c1.5-3.9,6-5.8,9.9-4.3c3.9,1.5,5.8,6,4.3,9.9l-16.7,42.2C167.9,155.2,165.1,157.1,162,157.1z"/>
	</g>
	<g>
		<path class="st0" d="M238,134.3c1.4-1.5,2.2-3.4,2.2-5.5c0-0.7-0.2-7.3-3.2-14.1c-4.5-10.1-12.8-15.7-23.6-15.7
			c-10.2,0-18.4,4.9-22.9,13.8c-3.3,6.4-3.8,13.1-3.9,15.8c0,0.1,0,0.3,0,0.4v0.3c0,10.3,8.1,29.6,27.7,29.6c11.2,0,17-4.1,18.2-5.1
			c0,0,0,0,0,0c1.9-1.4,3.2-3.7,3.2-6.2c0-4.2-3.4-7.7-7.6-7.7c-2,0-3.8,0.8-5.1,2c0,0,0,0,0,0c-0.8,0.5-3.6,1.7-8.7,1.7
			c-5.4,0-8.5-3.5-10.3-7.1h28.7C234.6,136.6,236.6,135.8,238,134.3z M203.2,121.3c0.2-0.5,0.4-1.1,0.7-1.6c1.9-3.8,4.8-5.5,9.4-5.5
			c4.6,0,7.5,2,9.5,6.3c0.1,0.3,0.2,0.5,0.3,0.8H203.2z"/>
	</g>
	<g>
		<path class="st0" d="M277.5,107.3c0,4.2-3.4,7.6-7.6,7.6h-5.1v35.6c0,4.2-3.4,7.6-7.6,7.6c-4.2,0-7.6-3.4-7.6-7.6v-35.6h-5.1
			c-4.2,0-7.6-3.4-7.6-7.6c0-4.2,3.4-7.6,7.6-7.6h5.1v-8.8c0-4.2,3.4-7.6,7.6-7.6c4.2,0,7.6,3.4,7.6,7.6v8.8h5.1
			C274.1,99.7,277.5,103.1,277.5,107.3z"/>
	</g>
	<g>
		<path class="st1" d="M300.8,159.6c-14.6,0-26.5-13-26.5-29c0-16,11.9-29,26.5-29c14.6,0,26.5,13,26.5,29
			C327.3,146.6,315.4,159.6,300.8,159.6z M300.8,116.9c-6.2,0-11.3,6.2-11.3,13.7c0,7.6,5.1,13.7,11.3,13.7
			c6.2,0,11.3-6.2,11.3-13.7C312.1,123.1,307,116.9,300.8,116.9z"/>
	</g>
	<path class="st1" d="M248.1,18.4c-12.6,0-24.8,4.8-35.8,14.1c-5.6,4.7-9.9,9.8-12.8,13.8c-9.2-4-18-6-26.5-6
		c-6.1,0-12.1,1-17.8,3.1c-25.5,9.3-36.5,36-37,37.1c-1.8,4.4,0.4,9.4,4.8,11.2c1.1,0.4,2.2,0.6,3.2,0.6c3.4,0,6.6-2,8-5.4
		c0.1-0.2,8.7-20.8,26.9-27.4c3.7-1.3,7.6-2,11.7-2c7.9,0,16.4,2.5,25.5,7.3c1.3,0.7,2.7,1,4.1,1c3,0,6-1.6,7.6-4.5
		c0.2-0.3,14.5-25.7,38.3-25.7c3.2,0,6.5,0.5,10,1.5c29.7,8.7,32.4,35.7,32.5,36.8c0.3,4.5,4.1,8,8.5,8c0.3,0,30,0.6,40.1,28.7
		c7.2,20.1,1.8,35.2,1.6,35.8c-1.7,4.5,0.5,9.4,5,11.2c1,0.4,2.1,0.6,3.1,0.6c3.5,0,6.7-2.1,8.1-5.5c0.3-0.9,8-21.4-1.5-47.8
		c-10.7-29.7-36.3-37.4-49-39.4c-3-12.1-12.7-35.7-43.6-44.8C258.1,19.1,253,18.4,248.1,18.4"/>
</g>
</svg>
