<?xml version="1.0" encoding="utf-8"?>
<!-- Generator: Adobe Illustrator 24.0.2, SVG Export Plug-In . SVG Version: 6.00 Build 0)  -->
<svg version="1.1" id="Layer_1" xmlns="http://www.w3.org/2000/svg" xmlns:xlink="http://www.w3.org/1999/xlink" x="0px" y="0px"
	 viewBox="0 0 44 44" style="enable-background:new 0 0 44 44;" xml:space="preserve">
<style type="text/css">
	.st0{fill:#D02B2F;}
</style>
<circle class="st0" cx="5" cy="7" r="1"/>
<circle class="st0" cx="9" cy="7" r="1"/>
<circle class="st0" cx="13" cy="7" r="1"/>
<path d="M41,3H3C1.35,3,0,4.35,0,6v30c0,1.65,1.35,3,3,3h4.18C7.6,40.16,8.7,41,10,41h24c1.3,0,2.4-0.84,2.82-2H41
	c1.65,0,3-1.35,3-3V6C44,4.35,42.65,3,41,3z M35,38c0,0.55-0.45,1-1,1H10c-0.55,0-1-0.45-1-1v-1.6c0-7.18,5.43-13.05,12.37-13.38
	c3.59-0.17,7.01,1.1,9.6,3.58C33.57,29.07,35,32.41,35,36V38z M42,36c0,0.55-0.45,1-1,1h-4v-1c0-4.14-1.65-8-4.65-10.85
	c-2.99-2.86-6.94-4.31-11.08-4.13C13.27,21.39,7,28.15,7,36.4V37H3c-0.55,0-1-0.45-1-1V11h40V36z M42,9H2V6c0-0.55,0.45-1,1-1h38
	c0.55,0,1,0.45,1,1V9z"/>
<circle class="st0" cx="12" cy="36" r="1"/>
<circle class="st0" cx="32" cy="36" r="1"/>
<ellipse class="st0" cx="14.93" cy="28.93" rx="1" ry="1"/>
<ellipse class="st0" cx="29.07" cy="28.93" rx="1" ry="1"/>
<circle class="st0" cx="22" cy="26" r="1"/>
<path class="st0" d="M20.05,35.61c-0.24,1.06,0.44,2.11,1.5,2.35s2.12-0.44,2.35-1.49L26,27l-5.63,7.89
	C20.22,35.1,20.1,35.35,20.05,35.61z M22,35c0.55,0,1,0.45,1,1s-0.45,1-1,1s-1-0.45-1-1S21.45,35,22,35z"/>
<g id="support">
</g>
</svg>
