<?xml version="1.0" encoding="utf-8"?>
<!-- Generator: Adobe Illustrator 24.0.2, SVG Export Plug-In . SVG Version: 6.00 Build 0)  -->
<svg version="1.1" id="Layer_1" xmlns="http://www.w3.org/2000/svg" xmlns:xlink="http://www.w3.org/1999/xlink" x="0px" y="0px"
	 viewBox="0 0 44 44" style="enable-background:new 0 0 44 44;" xml:space="preserve">
<style type="text/css">
	.st0{fill:#D02B2F;}
</style>
<circle class="st0" cx="22" cy="21" r="1"/>
<circle class="st0" cx="27" cy="21" r="1"/>
<circle class="st0" cx="32" cy="21" r="1"/>
<circle class="st0" cx="22" cy="26" r="1"/>
<circle class="st0" cx="27" cy="26" r="1"/>
<circle class="st0" cx="32" cy="26" r="1"/>
<circle class="st0" cx="22" cy="31" r="1"/>
<circle class="st0" cx="27" cy="31" r="1"/>
<circle class="st0" cx="32" cy="31" r="1"/>
<path class="st0" d="M21,17h12c0.6,0,1-0.4,1-1V9c0-0.6-0.4-1-1-1H21c-0.6,0-1,0.4-1,1v7C20,16.6,20.4,17,21,17z M22,10h10v5H22V10z
	"/>
<path d="M40,25.1V6c0-1.7-1.3-3-3-3H17.8c-0.4-1.2-1.5-2-2.8-2H9C7.3,1,6,2.3,6,4v4.9c0,0.9,0.2,1.8,0.6,2.6C6.9,12,7,12.5,7,13.1
	v12.8c0,0.6-0.1,1.2-0.4,1.7C6.2,28.3,6,29.2,6,30.1V35H3c-0.6,0-1-0.4-1-1V6c0-0.6,0.4-1,1-1s1-0.4,1-1S3.6,3,3,3C1.3,3,0,4.3,0,6
	v28c0,1.7,1.3,3,3,3h3.2c0.4,1.2,1.5,2,2.8,2c0.6,0,1-0.4,1-1s-0.4-1-1-1s-1-0.4-1-1v-5.9c0-0.6,0.1-1.2,0.4-1.7
	C8.8,27.7,9,26.8,9,25.9V13.1c0-0.9-0.2-1.8-0.6-2.6C8.1,10,8,9.5,8,8.9V4c0-0.6,0.4-1,1-1h6c0.6,0,1,0.4,1,1v4.9
	c0,0.6-0.1,1.2-0.4,1.7c-0.4,0.8-0.6,1.7-0.6,2.6V26c0,0.9,0.2,1.8,0.6,2.6c0.3,0.5,0.4,1.1,0.4,1.7V36c0,0.6-0.4,1-1,1h-3
	c-0.6,0-1,0.4-1,1c0,2.8,2.2,5,5,5h23c2.8,0,5-2.2,5-5v-8C44,27.6,42.3,25.6,40,25.1z M42,38c0,1.7-1.3,3-3,3H16
	c-1.3,0-2.4-0.8-2.8-2H15c1.7,0,3-1.3,3-3v-5.9c0-0.9-0.2-1.8-0.6-2.6c-0.3-0.5-0.4-1-0.4-1.6V13.1c0-0.6,0.1-1.2,0.4-1.7
	c0.4-0.8,0.6-1.7,0.6-2.6V5h19c0.6,0,1,0.4,1,1v28c0,0.6-0.4,1-1,1H21c-0.6,0-1,0.4-1,1s0.4,1,1,1h16c1.7,0,3-1.3,3-3v-6.8
	c1.2,0.4,2,1.5,2,2.8V38z"/>
</svg>
