<?xml version="1.0" encoding="utf-8"?>
<!-- Generator: Adobe Illustrator 24.0.2, SVG Export Plug-In . SVG Version: 6.00 Build 0)  -->
<svg version="1.1" id="Layer_1" xmlns="http://www.w3.org/2000/svg" xmlns:xlink="http://www.w3.org/1999/xlink" x="0px" y="0px"
	 viewBox="0 0 44 44" style="enable-background:new 0 0 44 44;" xml:space="preserve">
<style type="text/css">
	.st0{fill:#D02B2F;}
</style>
<path class="st0" d="M25,29c0-0.6-0.4-1-1-1h-6c-0.6,0-1,0.4-1,1s0.4,1,1,1h6C24.6,30,25,29.6,25,29z"/>
<path class="st0" d="M18,31c-0.6,0-1,0.4-1,1s0.4,1,1,1h4c0.6,0,1-0.4,1-1c0-0.6-0.4-1-1-1H18z"/>
<circle class="st0" cx="15" cy="29" r="1"/>
<circle class="st0" cx="15" cy="32" r="1"/>
<circle cx="22" cy="4" r="1"/>
<path d="M17,9h10c1.1,0,2-0.9,2-2V4.8c0-0.9-0.6-1.7-1.5-1.9l-1.8-0.5C25,1,23.6,0,22,0s-3,1-3.6,2.4l-1.8,0.5
	c-0.9,0.2-1.5,1-1.5,1.9V7C15,8.1,15.9,9,17,9z M17,4.8l2.4-0.6c0.4-0.1,0.6-0.4,0.7-0.7C20.3,2.6,21.1,2,22,2s1.7,0.6,1.9,1.5
	c0.1,0.4,0.4,0.6,0.7,0.7L27,4.8V7H17V4.8z"/>
<path d="M36,2h-5c-0.6,0-1,0.4-1,1s0.4,1,1,1h5c0.6,0,1,0.4,1,1v36c0,0.6-0.4,1-1,1H8c-0.6,0-1-0.4-1-1V5c0-0.6,0.4-1,1-1h5
	c0.6,0,1-0.4,1-1s-0.4-1-1-1H8C6.3,2,5,3.3,5,5v36c0,1.7,1.3,3,3,3h28c1.7,0,3-1.3,3-3V5C39,3.3,37.7,2,36,2z"/>
<path d="M13,6h-3C9.4,6,9,6.4,9,7v32c0,0.6,0.4,1,1,1h9h0.2H24h1.3c1.3,0,2.6-0.5,3.5-1.5l4.7-4.7c0.9-0.9,1.5-2.2,1.5-3.5V29v-7V7
	c0-0.6-0.4-1-1-1h-3c-0.6,0-1,0.4-1,1s0.4,1,1,1h2v14v7c0,1.1-0.9,2-2,2h-2c-1.7,0-3,1.3-3,3v2c0,1.1-0.9,2-2,2h-4.8H19h-8V8h2
	c0.6,0,1-0.4,1-1S13.6,6,13,6z M28,34c0-0.6,0.4-1,1-1h2c0.2,0,0.4,0,0.7-0.1L28,36.6c0-0.2,0.1-0.4,0.1-0.7V34H28z"/>
<path class="st0" d="M13,22v2c0,0.6,0.4,1,1,1s1-0.4,1-1v-2c0-0.6-0.4-1-1-1S13,21.4,13,22z"/>
<path class="st0" d="M18,25c0.6,0,1-0.4,1-1v-8c0-0.6-0.4-1-1-1s-1,0.4-1,1v8C17,24.6,17.4,25,18,25z"/>
<path class="st0" d="M25,19v5c0,0.6,0.4,1,1,1s1-0.4,1-1v-5c0-0.6-0.4-1-1-1S25,18.4,25,19z"/>
<path class="st0" d="M23,24v-7c0-0.6-0.4-1-1-1s-1,0.4-1,1v7c0,0.6,0.4,1,1,1S23,24.6,23,24z"/>
<path class="st0" d="M29,24c0,0.6,0.4,1,1,1s1-0.4,1-1V13c0-0.6-0.4-1-1-1s-1,0.4-1,1V24z"/>
<g id="target_x5F_audience">
</g>
</svg>
