<?xml version="1.0" encoding="utf-8"?>
<!-- Generator: Adobe Illustrator 24.0.2, SVG Export Plug-In . SVG Version: 6.00 Build 0)  -->
<svg version="1.1" id="Layer_1" xmlns="http://www.w3.org/2000/svg" xmlns:xlink="http://www.w3.org/1999/xlink" x="0px" y="0px"
	 viewBox="0 0 44 44" style="enable-background:new 0 0 44 44;" xml:space="preserve">
<style type="text/css">
	.st0{fill:#D02B2F;}
</style>
<path d="M41,2H3C1.35,2,0,3.35,0,5v28c0,1.65,1.35,3,3,3h14v3c0,0.55-0.45,1-1,1h-1c-0.55,0-1,0.45-1,1s0.45,1,1,1h1h12h1
	c0.55,0,1-0.45,1-1s-0.45-1-1-1h-1c-0.55,0-1-0.45-1-1v-3h14c1.65,0,3-1.35,3-3V5C44,3.35,42.65,2,41,2z M18.83,40
	c0.11-0.31,0.17-0.65,0.17-1v-3h6v3c0,0.35,0.06,0.69,0.17,1H18.83z M42,33c0,0.55-0.45,1-1,1H26h-8H3c-0.55,0-1-0.45-1-1v-5h40V33z
	 M42,26H2V5c0-0.55,0.45-1,1-1h38c0.55,0,1,0.45,1,1V26z"/>
<circle class="st0" cx="22" cy="31" r="1"/>
<path class="st0" d="M40,8h-2.28c-0.35-0.6-0.99-1-1.72-1c-1.1,0-2,0.89-2,2c0,0.26,0.05,0.5,0.14,0.72l-5.84,7.31
	C28.2,17.02,28.1,17,28,17c-0.38,0-0.73,0.11-1.03,0.3L19,12.95C18.97,11.87,18.09,11,17,11c-1.1,0-2,0.9-2,2
	c0,0.14,0.01,0.27,0.04,0.4l-6.42,5.7C8.43,19.04,8.22,19,8,19c-1.11,0-2,0.9-2,2c0,0.04,0.01,0.08,0.01,0.12l-1.57,1.05
	c-0.46,0.31-0.58,0.93-0.28,1.39C4.36,23.84,4.68,24,5,24c0.19,0,0.38-0.05,0.55-0.17l1.57-1.04C7.39,22.92,7.68,23,8,23
	c1.1,0,2-0.9,2-2c0-0.14-0.01-0.27-0.04-0.4l6.42-5.7C16.58,14.96,16.78,15,17,15c0.38,0,0.73-0.11,1.03-0.3L26,19.05
	c0.03,1.08,0.91,1.95,2,1.95c1.1,0,2-0.9,2-2c0-0.26-0.05-0.5-0.14-0.72l5.85-7.31C35.8,10.99,35.9,11,36,11c0.74,0,1.38-0.4,1.72-1
	H40c0.55,0,1-0.45,1-1S40.55,8,40,8z"/>
<g id="support">
</g>
</svg>
