<?xml version="1.0" encoding="utf-8"?>
<!-- Generator: Adobe Illustrator 24.0.2, SVG Export Plug-In . SVG Version: 6.00 Build 0)  -->
<svg version="1.1" id="Layer_1" xmlns="http://www.w3.org/2000/svg" xmlns:xlink="http://www.w3.org/1999/xlink" x="0px" y="0px"
	 viewBox="0 0 44 44" style="enable-background:new 0 0 44 44;" xml:space="preserve">
<style type="text/css">
	.st0{fill:#D02B2F;}
</style>
<circle class="st0" cx="22" cy="41" r="1"/>
<circle class="st0" cx="33" cy="36" r="1"/>
<path class="st0" d="M22,29c-0.55,0-1,0.45-1,1v8c0,0.55,0.45,1,1,1s1-0.45,1-1v-8C23,29.45,22.55,29,22,29z"/>
<path class="st0" d="M30,35h-2c-0.55,0-1-0.45-1-1v-4c0-0.55-0.45-1-1-1s-1,0.45-1,1v4c0,1.65,1.35,3,3,3h2c0.55,0,1-0.45,1-1
	S30.55,35,30,35z"/>
<circle class="st0" cx="11" cy="36" r="1"/>
<path class="st0" d="M18,29c-0.55,0-1,0.45-1,1v4c0,0.55-0.45,1-1,1h-2c-0.55,0-1,0.45-1,1s0.45,1,1,1h2c1.65,0,3-1.35,3-3v-4
	C19,29.45,18.55,29,18,29z"/>
<path d="M24,6c-2.29,0-4.43,1.12-5.74,3c-0.32,0.45-0.2,1.08,0.25,1.39c0.17,0.12,0.37,0.18,0.57,0.18c0.32,0,0.63-0.15,0.82-0.43
	C20.83,8.8,22.37,8,24,8c0.55,0,1-0.45,1-1S24.55,6,24,6z"/>
<path d="M35,9c-0.24,0-0.49,0.01-0.74,0.03C32.63,4.85,28.53,2,24,2c-4.02,0-7.67,2.17-9.6,5.62C13.67,7.22,12.85,7,12,7
	c-2.43,0-4.47,1.75-4.91,4.05C3.11,11.5,0,14.9,0,19c0,4.41,3.59,8,8,8h27c4.96,0,9-4.04,9-9S39.96,9,35,9z M35,25H23.89
	c1.3-1.27,2.11-3.04,2.11-5c0-0.55-0.45-1-1-1s-1,0.45-1,1c0,2.76-2.24,5-5,5H8c-3.31,0-6-2.69-6-6s2.69-6,6-6
	c1.6,0,3.11,0.62,4.24,1.76c0.19,0.19,0.45,0.29,0.71,0.29s0.51-0.1,0.71-0.29c0.39-0.39,0.39-1.02,0-1.41
	c-1.23-1.23-2.8-2.01-4.5-2.25C9.54,9.88,10.66,9,12,9c0.78,0,1.52,0.3,2.08,0.85c0.24,0.23,0.57,0.33,0.9,0.26
	c0.32-0.07,0.59-0.29,0.72-0.59C17.11,6.17,20.37,4,24,4c3.93,0,7.46,2.62,8.61,6.38C32.86,11.22,33,12.11,33,13
	c0,0.92-0.14,1.83-0.41,2.7c-0.17,0.53,0.13,1.09,0.65,1.25c0.1,0.03,0.2,0.05,0.3,0.05c0.42,0,0.82-0.27,0.95-0.7
	c0.34-1.06,0.5-2.17,0.5-3.3c0-0.67-0.07-1.34-0.19-1.99c0.06,0,0.13-0.01,0.19-0.01c3.86,0,7,3.14,7,7S38.86,25,35,25z"/>
<g id="support">
</g>
</svg>
