<?xml version="1.0" encoding="utf-8"?>
<!-- Generator: Adobe Illustrator 24.0.2, SVG Export Plug-In . SVG Version: 6.00 Build 0)  -->
<svg version="1.1" id="Layer_1" xmlns="http://www.w3.org/2000/svg" xmlns:xlink="http://www.w3.org/1999/xlink" x="0px" y="0px"
	 viewBox="0 0 44 44" style="enable-background:new 0 0 44 44;" xml:space="preserve">
<style type="text/css">
	.st0{fill:#D02B2F;}
</style>
<circle class="st0" cx="6" cy="37" r="2"/>
<path d="M39,15H28.39l1.77-5.31C30.72,8.01,31,6.27,31,4.5C31,2.02,28.98,0,26.5,0S22,2.02,22,4.55c0,0.67-0.26,1.3-0.73,1.77
	c-2.73,2.73-4.88,5.91-6.4,9.46C14.55,16.52,13.82,17,13.01,17H12c0-0.55-0.45-1-1-1H1c-0.55,0-1,0.45-1,1v26c0,0.55,0.45,1,1,1h10
	c0.55,0,1-0.45,1-1v-2.99c2.03,0.02,4.06,0.25,6.04,0.69l2.49,0.55c2.23,0.5,4.52,0.75,6.81,0.75h6.91c3.26,0,6.07-2.22,6.81-5.4
	l2.29-9.74c0.43-1.83,0.65-3.7,0.65-5.58V20C44,17.24,41.76,15,39,15z M10,42H2V18h8V42z M42,21.29c0,1.72-0.2,3.44-0.59,5.12
	l-2.29,9.74C38.58,38.42,36.58,40,34.25,40h-6.91c-2.14,0-4.28-0.24-6.37-0.7l-2.49-0.55c-2.12-0.47-4.3-0.72-6.47-0.74V19H13
	c1.61,0,3.06-0.96,3.7-2.44c1.42-3.31,3.43-6.28,5.98-8.83C23.53,6.88,24,5.75,24,4.5C24,3.12,25.12,2,26.5,2S29,3.12,29,4.5
	c0,1.55-0.25,3.08-0.74,4.56l-2.21,6.63c-0.1,0.31-0.05,0.64,0.14,0.9C26.38,16.85,26.68,17,27,17h12c1.65,0,3,1.35,3,3V21.29z"/>
<g id="support">
</g>
</svg>
