<?xml version="1.0" encoding="utf-8"?>
<!-- Generator: Adobe Illustrator 24.0.2, SVG Export Plug-In . SVG Version: 6.00 Build 0)  -->
<svg version="1.1" id="Layer_1" xmlns="http://www.w3.org/2000/svg" xmlns:xlink="http://www.w3.org/1999/xlink" x="0px" y="0px"
	 viewBox="0 0 44 44" style="enable-background:new 0 0 44 44;" xml:space="preserve">
<style type="text/css">
	.st0{fill:#D02B2F;}
</style>
<circle class="st0" cx="5" cy="7.2" r="1"/>
<circle class="st0" cx="9" cy="7.2" r="1"/>
<circle class="st0" cx="13" cy="7.2" r="1"/>
<path d="M41,41.2c1.7,0,3-1.3,3-3v-32c0-1.7-1.3-3-3-3H3c-1.7,0-3,1.3-3,3v32c0,1.7,1.3,3,3,3H41z M3,39.2c-0.6,0-1-0.4-1-1v-27h40
	v27c0,0.6-0.4,1-1,1H3z M42,9.2H2v-3c0-0.6,0.4-1,1-1h38c0.6,0,1,0.4,1,1V9.2z"/>
<path d="M13.5,34.2c4.6,0,8.3-3.7,8.3-8.3h-8.3v-8.3c-4.6,0-8.3,3.7-8.3,8.3S8.9,34.2,13.5,34.2z"/>
<path class="st0" d="M14.8,16.2v8.3h8.3C23.2,19.9,19.4,16.2,14.8,16.2z"/>
<path class="st0" d="M36.9,23.2h-6c-0.6,0-1,0.4-1,1s0.4,1,1,1h6c0.6,0,1-0.4,1-1S37.5,23.2,36.9,23.2z"/>
<path class="st0" d="M34.9,26.2h-4c-0.6,0-1,0.4-1,1s0.4,1,1,1h4c0.6,0,1-0.4,1-1S35.5,26.2,34.9,26.2z"/>
<circle class="st0" cx="27.9" cy="24.2" r="1"/>
<circle class="st0" cx="27.9" cy="27.2" r="1"/>
</svg>
