<?xml version="1.0" encoding="utf-8"?>
<!-- Generator: Adobe Illustrator 24.0.2, SVG Export Plug-In . SVG Version: 6.00 Build 0)  -->
<svg version="1.1" id="Layer_1" xmlns="http://www.w3.org/2000/svg" xmlns:xlink="http://www.w3.org/1999/xlink" x="0px" y="0px"
	 viewBox="0 0 44 44" style="enable-background:new 0 0 44 44;" xml:space="preserve">
<style type="text/css">
	.st0{fill:#D02B2F;}
</style>
<path d="M8,33c0-0.6-0.4-1-1-1H3c-0.6,0-1-0.4-1-1v-8c0-0.6,0.4-1,1-1h26c0.6,0,1-0.4,1-1s-0.4-1-1-1H3c-1.7,0-3,1.3-3,3v8
	c0,1.7,1.3,3,3,3h4C7.6,34,8,33.6,8,33z"/>
<path d="M41,14h-4c-0.6,0-1,0.4-1,1s0.4,1,1,1h4c1.7,0,3-1.3,3-3V5c0-1.7-1.3-3-3-3H3C1.3,2,0,3.3,0,5v8c0,1.7,1.3,3,3,3h21.2
	c1.6,0,3.1,0.5,4.4,1.5l7.8,6.2c0.2,0.1,0.4,0.2,0.6,0.2c0.1,0,0.3,0,0.4-0.1c0.3-0.2,0.6-0.5,0.6-0.9v-1h3c0.6,0,1,0.4,1,1v8
	c0,0.6-0.4,1-1,1H19.8c-2,0-4,0.7-5.6,2l-6.2,5V37c0-0.6-0.4-1-1-1s-1,0.4-1,1v4c0,0.4,0.2,0.7,0.6,0.9C6.7,42,6.9,42,7,42
	c0.2,0,0.4-0.1,0.6-0.2l7.8-6.2c1.2-1,2.8-1.5,4.4-1.5H41c1.7,0,3-1.3,3-3v-8c0-1.7-1.3-3-3-3h-3v-1c0-0.6-0.4-1-1-1s-1,0.4-1,1V21
	l-6.2-5c-1.6-1.3-3.6-2-5.6-2H3c-0.6,0-1-0.4-1-1V5c0-0.6,0.4-1,1-1h38c0.6,0,1,0.4,1,1v8C42,13.6,41.6,14,41,14z"/>
<circle class="st0" cx="16" cy="27" r="1"/>
<circle class="st0" cx="22" cy="27" r="1"/>
<circle class="st0" cx="28" cy="27" r="1"/>
<circle class="st0" cx="16" cy="9" r="1"/>
<circle class="st0" cx="22" cy="9" r="1"/>
<circle class="st0" cx="28" cy="9" r="1"/>
</svg>
