<?xml version="1.0" encoding="utf-8"?>
<!-- Generator: Adobe Illustrator 24.0.2, SVG Export Plug-In . SVG Version: 6.00 Build 0)  -->
<svg version="1.1" id="Layer_1" xmlns="http://www.w3.org/2000/svg" xmlns:xlink="http://www.w3.org/1999/xlink" x="0px" y="0px"
	 viewBox="0 0 44 44" style="enable-background:new 0 0 44 44;" xml:space="preserve">
<style type="text/css">
	.st0{fill:#D02B2F;}
</style>
<g id="connection">
	<g>
		<path d="M9.17,36.25l6.64-6.65C16.98,30.48,18.43,31,20,31s3.02-0.52,4.19-1.4l3.37,3.38c0.33-0.59,0.82-1.08,1.41-1.42
			l-3.38-3.37c0.69-0.92,1.16-2,1.33-3.19h7.18c0,0.01,0-0.02,0-0.07c-0.03-0.13-0.05-0.26-0.06-0.39
			c-0.02-0.18-0.03-0.36-0.03-0.54s0.01-0.37,0.03-0.55c0.02-0.16,0.06-0.46,0.06-0.45h-7.18c-0.44-3.05-2.86-5.48-5.92-5.92v-9.2
			c-0.32,0.09-0.65,0.13-1,0.13s-0.68-0.04-1-0.13v9.2c-3.06,0.45-5.48,2.87-5.92,5.92h-3.2c0.09,0.32,0.13,0.65,0.13,1
			c0,0.35-0.04,0.68-0.13,1h3.2c0.17,1.19,0.64,2.27,1.32,3.19l-6.65,6.65 M20,29c-2.76,0-5-2.24-5-5c0-2.75,2.24-5,5-5s5,2.25,5,5
			C25,26.76,22.76,29,20,29z"/>
	</g>
</g>
<g>
	<path class="st0" d="M30.92,38.88c-2.19,0-3.96-1.78-3.96-3.96s1.78-3.96,3.96-3.96s3.96,1.78,3.96,3.96S33.11,38.88,30.92,38.88z
		 M30.92,32.95c-1.08,0-1.96,0.88-1.96,1.96s0.88,1.96,1.96,1.96s1.96-0.88,1.96-1.96S32,32.95,30.92,32.95z"/>
</g>
<g>
	<path class="st0" d="M38.65,28.87c-2.68,0-4.87-2.18-4.87-4.87c0-2.68,2.18-4.87,4.87-4.87s4.87,2.18,4.87,4.87
		C43.52,26.68,41.33,28.87,38.65,28.87z M38.65,21.13c-1.58,0-2.87,1.29-2.87,2.87s1.29,2.87,2.87,2.87s2.87-1.29,2.87-2.87
		S40.23,21.13,38.65,21.13z"/>
</g>
<g>
	<path class="st0" d="M5.17,43.76c-2.68,0-4.87-2.18-4.87-4.87c0-2.68,2.18-4.87,4.87-4.87s4.87,2.18,4.87,4.87
		C10.03,41.57,7.85,43.76,5.17,43.76z M5.17,36.02c-1.58,0-2.87,1.29-2.87,2.87s1.29,2.87,2.87,2.87s2.87-1.29,2.87-2.87
		S6.75,36.02,5.17,36.02z"/>
</g>
<g>
	<path class="st0" d="M6.17,27.93c-2.19,0-3.96-1.78-3.96-3.96c0-2.19,1.78-3.96,3.96-3.96s3.96,1.78,3.96,3.96
		C10.14,26.15,8.36,27.93,6.17,27.93z M6.17,22c-1.08,0-1.96,0.88-1.96,1.96s0.88,1.96,1.96,1.96c1.08,0,1.96-0.88,1.96-1.96
		S7.26,22,6.17,22z"/>
</g>
<g>
	<path class="st0" d="M20,8.12c-2.19,0-3.96-1.78-3.96-3.96S17.81,0.19,20,0.19s3.96,1.78,3.96,3.96S22.19,8.12,20,8.12z M20,2.19
		c-1.08,0-1.96,0.88-1.96,1.96S18.92,6.12,20,6.12s1.96-0.88,1.96-1.96S21.08,2.19,20,2.19z"/>
</g>
</svg>
