<?xml version="1.0" encoding="utf-8"?>
<!-- Generator: Adobe Illustrator 24.0.2, SVG Export Plug-In . SVG Version: 6.00 Build 0)  -->
<svg version="1.1" id="Layer_1" xmlns="http://www.w3.org/2000/svg" xmlns:xlink="http://www.w3.org/1999/xlink" x="0px" y="0px"
	 viewBox="0 0 44 44" style="enable-background:new 0 0 44 44;" xml:space="preserve">
<style type="text/css">
	.st0{fill:#D02B2F;}
</style>
<path d="M41,3H3C1.35,3,0,4.35,0,6v32c0,1.65,1.35,3,3,3h38c1.65,0,3-1.35,3-3V6C44,4.35,42.65,3,41,3z M42,38c0,0.55-0.45,1-1,1H3
	c-0.55,0-1-0.45-1-1V11h40V38z M42,9H2V6c0-0.55,0.45-1,1-1h38c0.55,0,1,0.45,1,1V9z"/>
<circle class="st0" cx="5" cy="7" r="1"/>
<circle class="st0" cx="9" cy="7" r="1"/>
<circle class="st0" cx="13" cy="7" r="1"/>
<path class="st0" d="M27.29,29.29c-0.39,0.39-0.39,1.02,0,1.41C27.49,30.9,27.74,31,28,31s0.51-0.1,0.71-0.29L32,27.41
	c0.65-0.65,1-1.5,1-2.41s-0.35-1.77-1-2.41l-3.29-3.29c-0.39-0.39-1.02-0.39-1.41,0s-0.39,1.02,0,1.41L30.59,24
	c0.26,0.26,0.41,0.63,0.41,1s-0.15,0.74-0.41,1L27.29,29.29z"/>
<path class="st0" d="M15.29,30.71C15.49,30.9,15.74,31,16,31c0.26,0,0.51-0.1,0.71-0.29c0.39-0.39,0.39-1.02,0-1.41L13.41,26
	C13.15,25.74,13,25.37,13,25s0.15-0.74,0.41-1l3.29-3.29c0.39-0.39,0.39-1.02,0-1.41s-1.02-0.39-1.41,0L12,22.59
	c-0.65,0.65-1,1.5-1,2.41s0.35,1.77,1,2.41L15.29,30.71z"/>
<path class="st0" d="M19.73,32.96C19.82,32.99,19.91,33,20,33c0.43,0,0.83-0.29,0.96-0.73l4-14c0.15-0.53-0.16-1.08-0.69-1.24
	c-0.53-0.15-1.08,0.16-1.24,0.69l-4,14C18.89,32.26,19.19,32.81,19.73,32.96z"/>
<g id="support">
</g>
</svg>
