<?xml version="1.0" encoding="utf-8"?>
<!-- Generator: Adobe Illustrator 24.0.2, SVG Export Plug-In . SVG Version: 6.00 Build 0)  -->
<svg version="1.1" id="Layer_1" xmlns="http://www.w3.org/2000/svg" xmlns:xlink="http://www.w3.org/1999/xlink" x="0px" y="0px"
	 viewBox="0 0 44 44" style="enable-background:new 0 0 44 44;" xml:space="preserve">
<style type="text/css">
	.st0{fill:#D02B2F;}
</style>
<circle class="st0" cx="5" cy="5" r="1"/>
<circle class="st0" cx="9" cy="5" r="1"/>
<circle class="st0" cx="13" cy="5" r="1"/>
<path d="M41,1H3C1.35,1,0,2.35,0,4v32c0,1.66,1.35,3,3,3h14v-2H3c-0.55,0-1-0.44-1-1V9h40v27c0,0.56-0.45,1-1,1H27v2h14
	c1.65,0,3-1.34,3-3V4C44,2.35,42.65,1,41,1z M42,7H2V4c0-0.55,0.45-1,1-1h38c0.55,0,1,0.45,1,1V7z"/>
<path class="st0" d="M30.27,24.48c-0.17-0.29-0.17-0.66,0-0.95l0.33-0.55c0.47-0.8,0.53-1.75,0.18-2.61
	c-0.36-0.86-1.08-1.48-1.97-1.72l-0.63-0.16c-0.32-0.08-0.58-0.34-0.66-0.67l-0.17-0.62c-0.23-0.9-0.86-1.61-1.71-1.97
	c-0.86-0.35-1.81-0.29-2.61,0.18l-0.55,0.32c-0.15,0.09-0.32,0.13-0.48,0.13s-0.32-0.04-0.47-0.13l-0.56-0.32
	c-0.8-0.47-1.74-0.53-2.6-0.18c-0.86,0.36-1.48,1.07-1.72,1.97l-0.16,0.62c-0.09,0.33-0.34,0.59-0.67,0.67l-0.62,0.16
	c-0.9,0.24-1.62,0.86-1.97,1.72c-0.36,0.86-0.29,1.81,0.18,2.61l0.32,0.55c0.17,0.29,0.17,0.66,0,0.95l-0.32,0.55
	c-0.47,0.8-0.54,1.75-0.18,2.61c0.35,0.86,1.07,1.48,1.97,1.72l0.62,0.16c0.33,0.08,0.58,0.34,0.67,0.67l0.16,0.62
	c0.08,0.29,0.2,0.55,0.35,0.79V42c0,0.41,0.24,0.77,0.62,0.93c0.37,0.15,0.8,0.07,1.09-0.22L21,40.42c0.53-0.53,1.47-0.53,2,0
	l2.29,2.29C25.48,42.9,25.74,43,26,43c0.13,0,0.26-0.02,0.38-0.07C26.76,42.77,27,42.41,27,42V31.6c0.15-0.24,0.28-0.5,0.35-0.79
	l0.16-0.62c0.09-0.33,0.35-0.59,0.67-0.67l0.63-0.16c0.89-0.24,1.61-0.86,1.97-1.72c0.35-0.86,0.29-1.81-0.18-2.61L30.27,24.48z
	 M25,39.59L24.41,39c-0.64-0.64-1.5-1-2.41-1s-1.77,0.36-2.41,1L19,39.59v-6.63c0.16,0.03,0.33,0.05,0.49,0.05
	c0.51,0,1.02-0.14,1.48-0.41l0.56-0.32c0.29-0.17,0.65-0.17,0.94,0l0.56,0.32c0.61,0.36,1.3,0.48,1.97,0.36V39.59z M28.55,25.49
	l0.32,0.55c0.15,0.26,0.17,0.56,0.06,0.83c-0.11,0.28-0.34,0.48-0.63,0.55l-0.62,0.16c-1.03,0.27-1.83,1.07-2.1,2.1l-0.16,0.62
	c-0.08,0.29-0.28,0.52-0.55,0.63s-0.58,0.1-0.83-0.05l-0.56-0.33c-0.91-0.53-2.05-0.53-2.96,0l-0.56,0.33
	c-0.25,0.14-0.56,0.16-0.83,0.05s-0.47-0.34-0.55-0.62l-0.16-0.63c-0.27-1.02-1.07-1.83-2.1-2.09l-0.62-0.17
	c-0.29-0.07-0.52-0.27-0.63-0.55c-0.11-0.27-0.09-0.57,0.06-0.83l0.32-0.55c0.54-0.92,0.54-2.05,0-2.97l-0.32-0.55
	c-0.15-0.26-0.17-0.56-0.06-0.83c0.12-0.28,0.34-0.48,0.63-0.55l0.62-0.16c1.03-0.27,1.83-1.08,2.1-2.1l0.16-0.62
	c0.08-0.29,0.28-0.52,0.55-0.63c0.12-0.05,0.24-0.08,0.36-0.08c0.16,0,0.33,0.05,0.47,0.13l0.56,0.33c0.91,0.53,2.05,0.53,2.96,0
	l0.56-0.33c0.25-0.15,0.56-0.17,0.83-0.05c0.27,0.11,0.47,0.34,0.55,0.62l0.16,0.63c0.27,1.02,1.07,1.83,2.1,2.09l0.62,0.17
	c0.29,0.07,0.52,0.27,0.63,0.54c0.11,0.28,0.09,0.58-0.06,0.83l-0.32,0.56C28.01,23.44,28.01,24.57,28.55,25.49z"/>
<path class="st0" d="M22,20c-2.21,0-4,1.8-4,4c0,2.21,1.79,4,4,4s4-1.79,4-4C26,21.8,24.21,20,22,20z M22,26c-1.1,0-2-0.89-2-2
	c0-1.1,0.9-2,2-2s2,0.9,2,2C24,25.11,23.1,26,22,26z"/>
</svg>
