<?xml version="1.0" encoding="utf-8"?>
<!-- Generator: Adobe Illustrator 24.0.2, SVG Export Plug-In . SVG Version: 6.00 Build 0)  -->
<svg version="1.1" id="Layer_1" xmlns="http://www.w3.org/2000/svg" xmlns:xlink="http://www.w3.org/1999/xlink" x="0px" y="0px"
	 viewBox="0 0 44 44" style="enable-background:new 0 0 44 44;" xml:space="preserve">
<style type="text/css">
	.st0{fill:#D02B2F;}
</style>
<circle class="st0" cx="37" cy="36" r="1"/>
<path class="st0" d="M43,30h-1v-3c0-2.76-2.24-5-5-5s-5,2.24-5,5v3h-1c-0.55,0-1,0.45-1,1v8c0,1.65,1.35,3,3,3h8c1.65,0,3-1.35,3-3
	v-8C44,30.45,43.55,30,43,30z M34,27c0-1.65,1.35-3,3-3s3,1.35,3,3v3h-6V27z M42,39c0,0.55-0.45,1-1,1h-8c-0.55,0-1-0.45-1-1v-7h10
	V39z"/>
<path d="M27,32c0.55,0,1-0.45,1-1s-0.45-1-1-1h-6v-7h9c0.55,0,1-0.45,1-1v-2c0-0.01,0-0.02-0.01-0.03c0-0.01,0-0.02,0-0.03
	c-0.12-2.11-0.42-4.1-0.86-5.95h5.99c0.78,1.59,1.35,3.32,1.65,5.15c0.08,0.49,0.5,0.84,0.99,0.84c0.05,0,0.1,0,0.16-0.01
	c0.55-0.09,0.92-0.6,0.83-1.14C38.2,9.09,29.9,2,20.01,2c0,0,0,0-0.01,0C8.97,2,0,10.97,0,22c0,11,8.92,19.95,19.91,20
	c0.03,0,0.06,0,0.09,0c0.01,0,0.01,0,0.02,0c2.15,0,4.27-0.34,6.29-1.02c0.52-0.17,0.81-0.74,0.63-1.26
	c-0.17-0.49-0.68-0.76-1.17-0.64c0.66-0.73,1.28-1.58,1.85-2.58c0.27-0.48,0.11-1.09-0.37-1.36c-0.48-0.28-1.09-0.11-1.36,0.37
	c-1.4,2.45-3.11,3.95-4.89,4.37V32H27z M3.9,30c-1.06-2.13-1.71-4.5-1.85-7h6.98c0.04,1.4,0.13,2.79,0.32,4.14
	c0.07,0.5,0.5,0.86,0.99,0.86c0.05,0,0.1,0,0.14-0.01c0.55-0.08,0.93-0.58,0.85-1.13c-0.18-1.26-0.27-2.55-0.31-3.86H16
	c0.55,0,1-0.45,1-1s-0.45-1-1-1h-4.97c0.07-2.49,0.41-4.86,0.96-7H19v16H3.9z M20,4c3.06,0,5.84,3.19,7.49,8L21,12V7
	c0-0.55-0.45-1-1-1s-1,0.45-1,1v5h-6.43C14.2,7.21,16.95,4,20,4z M29,20.03V21h-8v-7h7.09C28.56,15.86,28.88,17.89,29,20.03z
	 M34.99,12h-5.4c-0.91-2.88-2.2-5.3-3.76-7.03C29.59,6.24,32.81,8.72,34.99,12z M14.15,4.99c-1.54,1.73-2.82,4.13-3.72,7.01H8
	c-0.55,0-1,0.45-1,1s0.45,1,1,1h1.89c-0.5,2.15-0.8,4.51-0.86,7H2.05C2.46,13.56,7.4,7.32,14.15,4.99z M5.04,32h5.41
	c0.91,2.91,2.2,5.3,3.72,7.01C10.42,37.72,7.22,35.24,5.04,32z M19,39.87c-2.56-0.61-4.96-3.53-6.44-7.87H19V39.87z"/>
<g id="camera">
</g>
</svg>
